# xmcd CD database file
#
# Track frame offsets:
#	150
#	17930
#	29267
#	45655
#	61692
#	81402
#	90505
#	102802
#	121475
#	128457
#	139110
#	159815
#
# Disc length: 2288 seconds
#
# Revision: 0
# Processed by: cddbd v1.4PL0 Copyright (c) Steve Scherf et al.
# Submitted via: CDex 1.50Beta7
#
DISCID=8c08ee0c
DTITLE=Sonny Terry and Brownie McGhee - Just A Closer Walk With Thee
DYEAR=1957
DGENRE=Blues
TTITLE0=Just A Closer Walk With Thee
TTITLE1=Children, Go Where I Send Thee
TTITLE2=What A Beautiful City
TTITLE3=Glory, Glory
TTITLE4=If I Could Hear My Mother Pray
TTITLE5=I'm Going To Shout
TTITLE6=I Shall Not Be Moved
TTITLE7=Packing Up
TTITLE8=Get Right, Church
TTITLE9=Some Of These Days
TTITLE10=If You See My Saviour
TTITLE11=You Can't Hide
EXTD=YEAR: 1957
EXTT0=
EXTT1=
EXTT2=
EXTT3=
EXTT4=
EXTT5=
EXTT6=
EXTT7=
EXTT8=
EXTT9=
EXTT10=
EXTT11=
PLAYORDER=
